<svg xmlns="http://www.w3.org/2000/svg" enable-background="new 0 0 700 700" viewBox="0 0 700 700"><path fill="#f8f3ff" d="M606 566.8c0 11.7-512 11.8-512 0 0-11.7 512-11.7 512 0zM129 270.7c8.8-52.7 47.3-96.4 93.1-119.7 45.9-23.3 98.3-28.5 149.2-26.1 21.3 1 42.9 3.3 62.9 10.9 12.6 4.8 22.8 14.7 34.6 21.3 50.6 28.3 103.6 60.8 120.1 118.7 9 31.5 9 66.3-3.4 96.4-12.4 30.1-38.1 54.8-68.7 61.4-33.8 7.3-67.9-7-100.9-17.6s-71.4-17.1-99.9 3.3c-16.3 11.7-26.6 30.4-39.4 46.2-12.6 15.9-31.1 29.9-50.6 26.5-19.8-3.4-32.7-23.1-43.2-41-16-27.5-31.9-55.3-42.7-85.4-10.8-30.2-16.4-63.1-11.1-94.9z" class="colorf8f3ff svgShape"/><path fill="#ff987a" d="M304.3 289c-2.7 2.1-5.7 3.8-8.3 5.1-4.6 2.3-8.3 3.4-8.3 3.4l-8.8-12.6s4.2-2.2 6.2-4.9c.2-.3.4-.6.6-1 1.5-3.1.9-8.2 2.8-9.4 2-1.1 3.9 3.6 2.9 9.3 0 0 11.3-15.1 13.7-13.7 1.4.8-1.6 5.8-4.1 9.3 4-4.7 9-10.2 10.4-9.5 1.4.8-2.7 6.8-6 11.3 3.5-3.9 7.3-7.6 8.6-6.9 1.2.7-1.3 4.7-3.9 8.4 2.1-1.5 3.8-2.4 4.5-1.9 2 1.5-10.3 13.1-10.3 13.1z" class="colorff987a svgShape"/><path fill="#f97a5d" d="M296 294.1c-4.6 2.3-8.3 3.4-8.3 3.4l-8.8-12.6s4.2-2.2 6.2-4.9c.1.9.4 1.8.9 2.6 1 1.5 2.5 2.5 3.9 3.6 1.7 1.4 3.2 3 4.5 4.7.6 1 1.3 2 1.6 3.2zM291.3 285.9c-.1 0-.1-.2-.1-.3 2.2-4.5.1-6.5 0-6.5-.1-.1-.1-.2 0-.3.1-.1.2-.1.3 0 .1.1 2.4 2.2 0 7 0 .1-.1.1-.2.1zM308.5 281.2c-3.4-6-12-4.9-12.1-4.9-.1 0-.2-.1-.2-.2s.1-.2.2-.2 9-1.2 12.5 5.1c.1.1 0 .2-.1.3-.1 0-.2 0-.3-.1z" class="colorf97a5d svgShape"/><path fill="#f97a5d" d="M299.8 276.3c-.2 0-.3-.2-.2-.3l1.2-1.6c.1-.1.2-.1.3 0 .1.1.1.2 0 .3l-1.2 1.6h-.1zM304.5 277.5c-.1-.1-.1-.2 0-.3l.7-.9c.1-.1.2-.1.3 0s.1.2 0 .3l-.7.9c0 .1-.2.1-.3 0zM308 280.1c-.1-.1-.1-.2 0-.3l2.2-2.4c.1-.1.2-.1.3 0 .1.1.1.2 0 .3l-2.2 2.4c-.1.1-.3.1-.3 0z" class="colorf97a5d svgShape"/><path fill="#ff987a" d="M226 559.3h-17.2l-2.1-14-1.2-8.6H224l.2 2.3z" class="colorff987a svgShape"/><path fill="#f47456" d="M224.2 539c-1.2 1-2.5 1.9-3.9 2.7-1.2.6-2.4 1-3.6 1.6-3.2 1.2-6.6 1.7-10 2l-1.2-8.6H224l.2 2.3z" class="colorf47456 svgShape"/><path fill="#ff987a" d="m153.2 536.7-.8 6.1-2.3 17h-17.3l1.8-21 .1-2.1z" class="colorff987a svgShape"/><path fill="#f47456" d="m153.2 536.7-.8 6.1c-3.9-.4-15.2-1.6-17.8-4l.2-2h18.4z" class="colorf47456 svgShape"/><path fill="#58082e" d="M226.7 537.6c-8 2.2-16.2 2-24.5 0L181.6 412l-25.2 125.4c-8.1 2.6-16.6 2.3-25.4 0l15.5-157.1 2.4-24.3 28.7 5.5 37-5.5.5 7.7 11.6 173.9z" class="color58082e svgShape"/><path fill="#3d0422" d="M215.1 363.8c-16.1 6.3-50.5 18.6-68.7 16.5l2.4-24.3 28.7 5.5 37-5.5.6 7.8zM200.8 528.8l1.4 8.8c8.3 2 16.4 2.2 24.5 0l-.6-8.8c-7.2 3.8-15.7 3.5-25.3 0zM131.8 528.8l-.9 8.6c8.8 2.3 17.4 2.6 25.4 0l1.7-8.6c-10.4 4.2-19.1 4.1-26.2 0z" class="color3d0422 svgShape"/><path fill="#3d0422" d="M185.3 388.8c-.3-.1-.4-.4-.3-.7 4.4-10.6 2.1-19.9 2-20-.1-.3.1-.5.4-.6.3-.1.5.1.6.4.1.4 2.5 9.7-2.1 20.6 0 .3-.3.4-.6.3zM179 388.8c-.3-.1-.4-.4-.3-.7 4.4-10.6 2.1-19.9 2-20-.1-.3.1-.5.4-.6.3-.1.5.1.6.4.1.4 2.5 9.7-2.1 20.6-.1.3-.4.4-.6.3z" class="color3d0422 svgShape"/><path fill="#52c1ff" d="M173.9 563.9v.3c0 .5-.5.9-1 1-1 0-2.6.1-4.7.1-8.9.1-25.7.3-33.8.1-1.4 0-2.5-.1-3.2-.2-4.9-.5-1.8-8.1.6-12.8 1.1-2.1 2-3.6 2-3.6s.4.9 2.5 2c1 .5 2.4 1 4.4 1.5 8 2 11.1-4.3 11.1-4.3l1.9 1.5 8.7 6.9 5.7 1.8 2.5.8c2 .8 3.4 2.8 3.3 4.9z" class="color52c1ff svgShape"/><path fill="#4f3c94" d="M135.3 552.6c-1.1 2.8-1.6 5.9-1.4 9 .1 1.3.3 2.5.6 3.8-1.4 0-2.5-.1-3.2-.2-7.2-.7 2.6-16.3 2.6-16.3s.4.9 2.5 2c-.5.6-.9 1.2-1.1 1.7zM173.9 563.9v.3c0 .5-.5.9-1 1-1 0-2.6.1-4.7.1-.6-1-1-2.2-1-3.5 0-1.2.3-2.4.9-3.4l2.5.8c2 .6 3.4 2.6 3.3 4.7z" class="color4f3c94 svgShape"/><path fill="#4f3c94" d="M153.7 549.5c-1.5 3.1-4.8 7.4-12.2 6.6-4.3-.5-7.5-2.1-9.7-3.7 1.1-2.1 2-3.6 2-3.6s.4.9 2.5 2c1 .5 2.4 1 4.4 1.5 8 2 11.1-4.3 11.1-4.3l1.9 1.5zM153.8 553.4c-.2-.2-.2-.5 0-.7l1.9-2c.2-.2.5-.2.7 0 .2.2.2.5 0 .7l-1.9 2c-.2.2-.5.2-.7 0zM155.5 554.5c-.2-.2-.2-.5 0-.7l1.9-2c.2-.2.5-.2.7 0 .2.2.2.5 0 .7l-1.9 2c-.2.2-.5.2-.7 0zM157.1 555.8c-.2-.2-.2-.5 0-.7l1.9-2c.2-.2.5-.2.7 0 .2.2.2.5 0 .7l-1.9 2c-.2.2-.5.2-.7 0zM158.7 557.1c-.2-.2-.2-.5 0-.7l1.9-2c.2-.2.5-.2.7 0 .2.2.2.5 0 .7l-1.9 2c-.2.2-.5.2-.7 0zM163.6 562.6h-32.9c-.3 0-.5-.2-.5-.5s.2-.5.5-.5h32.9c.3 0 .5.2.5.5s-.2.5-.5.5z" class="color4f3c94 svgShape"/><path fill="#52c1ff" d="M247.3 563.9v.3c0 .5-.5.9-1 1-1 0-2.6.1-4.7.1-8.9.1-25.7.3-33.8.1-1.4 0-2.5-.1-3.2-.2-4.9-.5-1.8-8.1.6-12.8 1.1-2.1 2-3.6 2-3.6s.4.9 2.5 2c1 .5 2.4 1 4.4 1.5 8 2 11.1-4.3 11.1-4.3l1.9 1.5 8.7 6.9 5.7 1.8 2.5.8c2 .8 3.4 2.8 3.3 4.9z" class="color52c1ff svgShape"/><path fill="#4f3c94" d="M208.6 552.6c-1.1 2.8-1.6 5.9-1.4 9 .1 1.3.3 2.5.6 3.8-1.4 0-2.5-.1-3.2-.2-7.2-.7 2.6-16.3 2.6-16.3s.4.9 2.5 2c-.4.6-.9 1.2-1.1 1.7zM247.3 563.9v.3c0 .5-.5.9-1 1-1 0-2.6.1-4.7.1-.6-1-1-2.2-1-3.5 0-1.2.3-2.4.9-3.4l2.5.8c2 .6 3.4 2.6 3.3 4.7z" class="color4f3c94 svgShape"/><path fill="#4f3c94" d="M227 549.5c-1.5 3.1-4.8 7.4-12.2 6.6-4.3-.5-7.5-2.1-9.7-3.7 1.1-2.1 2-3.6 2-3.6s.4.9 2.5 2c1 .5 2.4 1 4.4 1.5 8 2 11.1-4.3 11.1-4.3l1.9 1.5zM227.1 553.4c-.2-.2-.2-.5 0-.7l1.9-2c.2-.2.5-.2.7 0s.2.5 0 .7l-1.9 2c-.1.2-.5.2-.7 0zM228.9 554.5c-.2-.2-.2-.5 0-.7l1.9-2c.2-.2.5-.2.7 0 .2.2.2.5 0 .7l-1.9 2c-.2.2-.5.2-.7 0zM230.5 555.8c-.2-.2-.2-.5 0-.7l1.9-2c.2-.2.5-.2.7 0 .2.2.2.5 0 .7l-1.9 2c-.2.2-.5.2-.7 0zM232.1 557.1c-.2-.2-.2-.5 0-.7l1.9-2c.2-.2.5-.2.7 0 .2.2.2.5 0 .7l-1.9 2c-.2.2-.5.2-.7 0zM237 562.6h-32.9c-.3 0-.5-.2-.5-.5s.2-.5.5-.5H237c.3 0 .5.2.5.5s-.2.5-.5.5z" class="color4f3c94 svgShape"/><path fill="#e8354c" d="M291.1 300.5s-40.8 44.1-55.8 44c-1.9 0-4.1-1-6.5-2.6-6.6-4.5-14.7-14.4-21.6-24.5-6.5-9.5-12-19.1-14.4-24.9-2.6-6.3 1.3-24 7.8-26.1 11.3-3.6 37.6 40 37.6 40l40.1-24.4c4.5-3.1 17.3 15.4 12.8 18.5z" class="colore8354c svgShape"/><path fill="#ce1938" d="M228.8 341.9c-6.6-4.5-14.7-14.4-21.6-24.5l5.2-28.4 16.4 52.9z" class="colorce1938 svgShape"/><path fill="#e8354c" d="M213.7 365.2c-19.5 4.8-57.3 3.7-66.3-3.7-9.2-7.6-6.5-26.9-5.8-48.9.5-14.5.1-30.2-5-44.5-1.5-4.1 13.4-5.3 26.2-5.6 9.4-.2 17.8.1 17.8.1s5.6 0 11.9 1c7.5 1.1 16 3.7 16.9 9.2 4.3 26.1 10.2 47.3 12.9 78.8 0 .5.1 1 .1 1.5.6 5.5-3.2 10.7-8.7 12.1z" class="colore8354c svgShape"/><path fill="#ce1938" d="M213.7 365.2c-19.5 4.8-57.3 3.7-66.3-3.7-9.2-7.6-6.5-26.9-5.8-48.9.8.8 1.6 1.7 2.3 2.4 2 1.9 4 3.9 6 5.7 19.9 17.9 45.8 28.8 72.5 30.8 0 .5.1 1 .1 1.5.5 5.6-3.3 10.8-8.8 12.2z" class="colorce1938 svgShape"/><path fill="#ff987a" d="m192.1 370.3-12.8-3.5 9.9 5.8c3.2 1.7 2.2 4.5-1.9 2.5l-12-5.2 7.9 6c2.5 1.8 1.2 3.5-1.4 2 0 0-4.7-2.2-9.1-4.7-.4-.3-.9-.5-1.3-.8-.8-.5-1.7-1-2.8-1.8-2.5-1.8-6.1-5-11.5-11.6l7.8-13.5.1-.1s.1.1.2.1c.6.5 2.3 1.9 3.2 2.6.3.2.5.4.5.4 1.8 1.2 2.1 1.4 3 1.5.4 0 .8 0 1.3-.1 3.4-.5 8.6-3.4 9.9-2 2.3 2.5-5.3 6.5-5.3 6.5l15 6.5c2.6 1.2 1.6 3.9-1.5 2.9l-11.5-3 13.6 6.4c3.3 1.6 2.3 4.5-1.3 3.1z" class="colorff987a svgShape"/><path fill="#f97a5d" d="M173.3 350.1v.2c-.3 1.7-1.2 3.3-2.1 4.8-.9 1.5-1.9 3-2.3 4.6-.6 2.1-.4 4.4-.2 6.6.1 1.5.2 3-.1 4.4-2.5-1.8-6.1-5-11.5-11.6l7.8-13.5.1-.1s.1.1.2.1c.6.5 2.3 1.9 3.2 2.6.3.2.5.4.5.4 1.8 1.2 2.1 1.4 3 1.5.5.1.9.1 1.4 0z" class="colorf97a5d svgShape"/><path fill="#e8354c" d="M164.1 266.9c6.4 10-28.9 46.7-28.9 46.7l34 32.4c4.1 4.1-7.9 18.6-13.8 16.3 0 0-50.8-24.9-54.5-39.4-3-11.6 23.5-47 35.7-56.3 5.3-4 23.8-5.5 27.5.3z" class="colore8354c svgShape"/><path fill="#ce1938" d="M159.1 362.6c-.2 0-.4-.1-.5-.3-.1-.3 0-.5.3-.7 4.4-1.8 9.5-7.8 10.4-12.2.3-1.4.1-2.4-.6-3.1L134.8 314c-.1-.1-.2-.2-.2-.4 0-.1 0-.3.1-.4 0 0 2.1-2.2 5.2-5.6.2-.2.5-.2.7 0 .2.2.2.5 0 .7-2.3 2.6-4.1 4.5-4.9 5.3l33.6 32.1c.9.9 1.2 2.3.8 4-.9 4.6-6.4 11-11 12.9.1-.1.1 0 0 0z" class="colorce1938 svgShape"/><path fill="#ffffff" d="M192.5 263.5v.9l-.5 1.1c-4 7.9-9.1 9.6-12.8 9.6-4.8 0-9.7-2.9-14.9-8.8-.9-1-1.4-2.3-1.5-3.7v-.1c9.4-.2 17.8.1 17.8.1s5.6-.1 11.9.9z" class="colorfff svgShape"/><path fill="#ff987a" d="M199.8 244.4c-.3 13.8-12.1 12-12.8 11.9l-.3 5.3c-.1.9-.3 1.8-.7 2.5-3.7 6.3-8.7 7.3-15.9-.1-1-1-1.5-2.3-1.6-3.7l-.9-27.5c-.3-10.2 29.5-19.1 29-4.8 1.4 4 2.2 7.4 2.7 10.3.4 2.3.6 4.3.5 6.1z" class="colorff987a svgShape"/><path fill="#f97a5d" d="M179.2 269.3c-2.7 0-5.8-1.8-9.2-5.2-.1-.1-.1-.2 0-.3.1-.1.2-.1.3 0 3.6 3.7 6.8 5.4 9.5 5.1 2.1-.2 4.1-1.7 5.8-4.4.1-.1.2-.1.3-.1.1.1.1.2.1.3-1.8 2.8-3.8 4.4-6 4.6h-.8z" class="colorf97a5d svgShape"/><path fill="#58082e" d="M201.7 223.6c-.6 3-1.8 6.1-3.6 9.2l-1.5-4.8s-5.3 5-17.8.9c-12.4-4.2-8.2 2.1-7.3 4 .7 1.2 1.7 4-3.4 4.5.7.8 1.3 3.5.6 5 0 0-1.6-7.6-6.5-4.1-.5.4-1 .8-1.6 1.4 0 0-8.2-13.8.6-16.7 0 0-4.7-6.5.5-10 0 0 6.3-3.6 11.1 3.1 0 0-1.6-7 5.8-8.3 7.4-1.4 8.9 8.3 8.9 8.3s4.3-6.1 9-6.8c4.4-.8 7 6 5.2 14.3z" class="color58082e svgShape"/><path fill="#3d0422" d="M168.2 237.8c-.3 0-.5-.2-.5-.5s.2-.5.5-.5c1.8-.2 2.9-.6 3.3-1.4.3-.6.2-1.4-.3-2.4-.1-.1-.1-.3-.2-.4-.7-1.3-1.9-3.5-.9-4.8 1.1-1.3 3.9-1.1 9 .6 12 4 17.2-.7 17.3-.8.2-.2.5-.2.7 0 .2.2.2.5 0 .7-.2.2-5.7 5.2-18.3 1-5.9-2-7.5-1.4-7.9-.9-.7.8.4 2.8 1 3.7.1.2.2.3.2.4.7 1.3.8 2.4.3 3.3-.7 1.1-2 1.8-4.2 2z" class="color3d0422 svgShape"/><path fill="#3d0422" d="M201.7 223.6c-.3-.2-.6-.6-.7-1-.3-.7-.2-1.6-.2-2.4.1-2.5-.1-5.4-2.1-7-1.7-1.4-4.3-1.4-6.3-.4-2 .9-3.6 2.5-5.2 4.1-1.8-3.8-4.5-8.4-8.9-6.9-3.1 1-3.8 4.6-4.3 7.5-2.2-1.1-4.4-2.1-6.6-3.2-3.8-1.8-5.5.9-5.5 3.2 0 1.8 1 3.5 2 5.1-2.8-.1-5.9 2.8-2.9 10.8.5 1.2 1 3 1.2 4.7-.5.4-1 .8-1.6 1.4 0 0-8.2-13.8.6-16.7 0 0-4.7-6.5.5-10 0 0 6.3-3.6 11.1 3.1 0 0-1.6-7 5.8-8.3 7.4-1.4 8.9 8.3 8.9 8.3s4.3-6.1 9-6.8c4.4-.6 7 6.2 5.2 14.5z" class="color3d0422 svgShape"/><ellipse cx="183.5" cy="237.4" fill="#58082e" rx=".9" ry="1" class="color58082e svgShape"/><path fill="#58082e" d="M185.4 233.4c0 .5-.8 1-2.4 1.1s-3.2-.3-3.3-.8c0-.6 1.6-1.1 3.2-1.2s2.4.4 2.5.9z" class="color58082e svgShape"/><ellipse cx="194.2" cy="236.8" fill="#58082e" rx=".9" ry="1" class="color58082e svgShape"/><path fill="#58082e" d="M196.5 233c0 .5-.9 1-2.5 1s-3.2-.4-3.2-1 1.7-1 3.2-1 2.5.5 2.5 1z" class="color58082e svgShape"/><path fill="#f97a5d" d="M189.4 245.5c-.1 0-.2-.1-.2-.2s.1-.2.2-.2c.6 0 1.3 0 1.9-.2 1.8-.6 1.9-2.3.6-3.6-.7-.7-1.6-1.3-2.2-2.1-.9-1.1-1.2-2.6-1.1-4 0-.1.1-.2.2-.2s.2.1.2.2c0 1.3.2 2.7 1.1 3.7.6.8 1.5 1.3 2.2 2.1 1.5 1.6 1.3 3.6-.7 4.3-.8.2-1.5.2-2.2.2zM184.6 251c-1.2-.9-1.3-2.5-1.3-2.5 0-.1.1-.2.2-.2s.2.1.2.2c0 0 0 1.5 1.1 2.2.8.6 2 .6 3.5.1.1 0 .2 0 .3.1s0 .2-.1.3c-1.3.4-2.8.6-3.9-.2z" class="colorf97a5d svgShape"/><path fill="#ff987a" d="M169.4 239c-1.1-2.7-4.4-5.4-6.4-5-.6.1-1.1.5-1.5 1-1.6 2.1-1.2 8.2 2.2 10.1 4.3 2.4 5.6-2.1 5.7-2.8.1-.6 0-1.3 0-1.9.1-.5.2-.9 0-1.4z" class="colorff987a svgShape"/><path fill="#f97a5d" d="M166.9 241.9c-.5-3.2-3.2-3.6-3.3-3.6-.1 0-.2-.1-.2-.2s.1-.2.2-.2c0 0 3.1.5 3.7 4 0 .1-.1.2-.2.2-.1-.1-.2-.1-.2-.2z" class="colorf97a5d svgShape"/><path fill="#f97a5d" d="M166.9 241.9c-1-1.3-2.9-.8-2.9-.8-.1 0-.2 0-.3-.1 0-.1 0-.2.1-.2s2.1-.6 3.3.9c.1.1.1.2 0 .3 0 0-.1-.1-.2-.1zM176.7 253.8c-5.8-3.7-6.8-7.1-6.9-7.3 0-.1 0-.2.1-.2s.2 0 .3.1c0 0 1.1 3.4 6.7 7 .1.1.1.2.1.3-.1.2-.2.2-.3.1z" class="colorf97a5d svgShape"/><path fill="#e8354c" d="M184.6 242.6c0 1.7-1.6 3.1-3.6 3.1s-3.6-1.4-3.6-3.1c0-1.7 1.6-3.1 3.6-3.1s3.6 1.4 3.6 3.1z" opacity=".3" class="colore8354c svgShape"/><path fill="#ce1938" d="M150.6 290.2c-.2-.1-.3-.5-.2-.7 6.7-10.8 1.2-18.4 1.2-18.4-.2-.2-.1-.5.1-.7.2-.2.5-.1.7.1.1.1 5.9 8.2-1.1 19.6-.1.1-.4.2-.7.1zM112.5 320.4c-.1 0-.2 0-.3-.1-.2-.2-.3-.5-.1-.7 7.4-10.3 23.1-6.5 23.2-6.5.3.1.4.3.4.6-.1.3-.3.4-.6.4-.2 0-15.2-3.6-22.2 6.1-.1.1-.3.2-.4.2zM238.2 307.4c-.2 0-.3-.1-.4-.2l-10.6-16.5c-.1-.2-.1-.5.2-.7.2-.1.5-.1.7.2l10.3 16.1 14.4-9.2c.2-.1.5-.1.7.2.1.2.1.5-.2.7l-14.8 9.4h-.3z" class="colorce1938 svgShape"/><path fill="#ce1938" d="M237.9 329c-.2-.1-.4-.4-.2-.7 6.9-14.1.2-21 .1-21.1-.2-.2-.2-.5 0-.7.2-.2.5-.2.7 0 .3.3 7.4 7.4.1 22.2-.1.3-.4.4-.7.3zM211.5 287.1l-2.2-12c0-.3.1-.5.4-.6.3 0 .5.1.6.4l2.2 12c0 .3-.1.5-.4.6-.3.1-.5-.1-.6-.4z" class="colorce1938 svgShape"/><path fill="#3d0422" d="m181.6 412.2.3-15.2-3.8 32.6zM206.3 385.6c-4-5-1.6-14.3-1.5-14.7.1-.3.3-.4.6-.4.3.1.4.3.4.6 0 .1-2.4 9.2 1.3 13.8 1.5 1.9 3.8 2.8 6.9 2.7.3 0 .5.2.5.5s-.2.5-.5.5c-3 .1-5.8-.7-7.7-3zM152.4 388.9c-.3 0-.5-.2-.5-.5s.2-.5.5-.5c3.1.1 5.4-.8 6.9-2.7 3.7-4.6 1.3-13.7 1.3-13.8-.1-.3.1-.5.4-.6.3-.1.5.1.6.4.1.4 2.5 9.6-1.5 14.7-1.9 2.3-4.7 3.1-7.7 3z" class="color3d0422 svgShape"/><path fill="#e8354c" d="M199.8 244.4c-.3.1-.6.1-.8.1-2 0-3.6-1.4-3.6-3.1 0-1.7 1.6-3.1 3.6-3.1h.3c.4 2.3.6 4.3.5 6.1z" opacity=".3" class="colore8354c svgShape"/><path fill="#f97a5d" d="M187.1 256.2c-1.5 0-3.1-.4-4.7-1.2.6 2.6 2 4.2 4.5 4.4l.2-3.2z" class="colorf97a5d svgShape"/><path fill="#3d0422" d="M194.8 229.6c-.2 0-.4-.1-.5-.3-.1-.3 0-.5.3-.6 2.3-.8 3.2-3.8 3.3-3.9.1-.3.4-.4.6-.3.3.1.4.4.3.6 0 .1-1.1 3.5-3.9 4.5h-.1z" class="color3d0422 svgShape"/><path fill="#ce1938" d="M191.6 325.4c-.3 0-6.4-.9-7.9-9.7-1.4-8-5.3-8.5-5.3-8.5-.3 0-.5-.3-.5-.5 0-.3.2-.5.5-.5.2 0 4.7.5 6.2 9.3 1.4 8 6.9 8.9 7.1 8.9.3 0 .5.3.4.6 0 .2-.2.4-.5.4z" class="colorce1938 svgShape"/><path fill="#3d0422" d="m182.7 395.7-1 15.8v.5l-4.3 21.4.8-37.8c1.4.4 2.9.5 4.5.1z" class="color3d0422 svgShape"/><path fill="#3d0422" d="M173.2 393.7c-.2-.2-.3-.5-.1-.7.2-.2.5-.3.7-.1 4.6 3.4 9 3.4 13.5 0 .2-.2.5-.1.7.1.2.2.1.5-.1.7-4.9 3.7-9.9 3.7-14.7 0zM206.1 386.1c-4.2-5.6-1-15.7-.8-16.2.1-.3.4-.4.6-.3.3.1.4.4.3.6 0 .1-3.2 10 .7 15.3 1.7 2.3 4.5 3.3 8.4 3.2.3 0 .5.2.5.5s-.2.5-.5.5c-3.6.1-7.1-.8-9.2-3.6zM149 390.8c-.3 0-.5-.2-.5-.5s.2-.5.5-.5c3.9.1 6.7-.9 8.4-3.2 3.9-5.2.7-15.2.7-15.3-.1-.3.1-.5.3-.6.3-.1.5.1.6.3.1.4 3.4 10.5-.8 16.2-2.1 2.9-5.5 3.8-9.2 3.6z" class="color3d0422 svgShape"/><path fill="#1a1459" d="M330.9 543.9c-.3 0-.5-.2-.5-.5v-65.8c0-.3.2-.5.5-.5s.5.2.5.5v65.8c0 .3-.2.5-.5.5z" class="color1a1459 svgShape"/><path fill="#1a1459" d="M366.3 556.2c-.3 0-.5-.2-.5-.5v-4c0-4.3-3.5-7.7-7.7-7.7h-55.8c-4.3 0-7.7 3.5-7.7 7.7v4c0 .3-.2.5-.5.5s-.5-.2-.5-.5v-4c0-4.8 3.9-8.7 8.7-8.7H358c4.8 0 8.7 3.9 8.7 8.7v4c.1.2-.2.5-.4.5z" class="color1a1459 svgShape"/><path fill="#1a1459" d="M323.8 556.2c-.3 0-.5-.2-.5-.5v-4c0-4.8 3.9-8.7 8.7-8.7.3 0 .5.2.5.5s-.2.5-.5.5c-4.3 0-7.7 3.5-7.7 7.7v4c0 .2-.2.5-.5.5z" class="color1a1459 svgShape"/><path fill="#52c1ff" d="M330.1 556.3c0 3.1-2.5 5.6-5.6 5.6-3.1 0-5.6-2.5-5.6-5.6s2.5-5.6 5.6-5.6c3.1 0 5.6 2.5 5.6 5.6z" class="color52c1ff svgShape"/><path fill="#1a1459" d="M326.6 556.3c0 1.1-.9 2-2 2s-2-.9-2-2 .9-2 2-2c1.1-.1 2 .8 2 2z" class="color1a1459 svgShape"/><path fill="#52c1ff" d="M299.6 556.3c0 3.1-2.5 5.6-5.6 5.6s-5.6-2.5-5.6-5.6 2.5-5.6 5.6-5.6 5.6 2.5 5.6 5.6z" class="color52c1ff svgShape"/><path fill="#1a1459" d="M296.1 556.3c0 1.1-.9 2-2 2s-2-.9-2-2 .9-2 2-2 2 .8 2 2z" class="color1a1459 svgShape"/><path fill="#52c1ff" d="M371.9 556.3c0 3.1-2.5 5.6-5.6 5.6s-5.6-2.5-5.6-5.6 2.5-5.6 5.6-5.6 5.6 2.5 5.6 5.6z" class="color52c1ff svgShape"/><path fill="#1a1459" d="M368.3 556.3c0 1.1-.9 2-2 2s-2-.9-2-2 .9-2 2-2c1.1-.1 2 .8 2 2z" class="color1a1459 svgShape"/><path fill="#ff987a" d="m393.2 534.1 2.6 26.9 19 1.8-2.2-28.7z" class="colorff987a svgShape"/><path fill="#f47456" d="M413.4 544.9c-2.4.5-5.1-.5-7.6-.2-3.2.3-6 2.7-6.9 5.7-.8 2.9.2 6.2-.8 9.1-.2.5-.4 1-.7 1.5l-1.6-.2-2.6-26.9h19.4l.8 11z" class="colorf47456 svgShape"/><path fill="#e8354c" d="m394.3 551.2.9 18.2c0 .9.8 1.6 1.6 1.6h47.3s4.4-3.7-6.8-6.2c-11.2-2.6-17.6-15.3-24.2-18-6.6-2.7-9.8 11-9.8 11l-.3-1.3c-.7-3.4-3.3-6.1-6.8-6.9-.9-.3-1.9.5-1.9 1.6z" class="colore8354c svgShape"/><path fill="#ffffff" d="M417.3 557.3c.1 0 .2-.1.2-.2v-2.8c0-.1 0-.1-.1-.1h-.1l-2.3.9c-.1 0-.1.1-.1.2s.1.1.2.1l2.1-.8v2.6c-.1 0 0 .1.1.1z" class="colorfff svgShape"/><path fill="#ffffff" d="M424.2 560.9c.1-.1.1-.2 0-.2l-9.4-8.8c-.1-.1-.2-.1-.2 0-.1.1-.1.2 0 .2l9.4 8.8c0 .1.1.1.2 0z" class="colorfff svgShape"/><path fill="#ffffff" d="M417.3 554.5c-.1 0-.3-.1-.3-.4-.1-.4.2-1 .3-1.3.1-.4.5-1.5.9-1.8.2-.2.4-.3.6-.2.9.1.9 1.7.1 2.7-.1 0-1 1-1.6 1zm1.1-3.3c-.3.3-.7 1.3-.8 1.7-.1.3-.4.9-.3 1.2 0 .1.1.2.1.2.3.1.9-.6 1.2-.9.8-.9.7-2.1.1-2.2-.1-.1-.3-.1-.3 0zM421.3 558.2c-.1 0-.3-.1-.3-.4-.1-.4.2-1 .3-1.3.1-.4.6-1.5.9-1.8.5-.4 1.1-.2 1.3.5.1.6-.1 1.3-.6 1.9 0 0-.8 1-1.4 1-.2.2-.2.2-.2.1zm1-3.2c-.3.3-.7 1.3-.8 1.7-.1.3-.4.9-.3 1.2 0 .1.1.2.1.2.3.1.9-.6 1.2-.9.4-.5.6-1.1.5-1.7 0-.6-.3-.8-.7-.5z" class="colorfff svgShape"/><path fill="#ffffff" d="M421.2 561c.1 0 .2-.1.2-.2V558c0-.1 0-.1-.1-.1h-.1l-2.3.9c-.1 0-.1.1-.1.2s.1.1.2.1l2.1-.8v2.6l.1.1zM440.6 565.6c7.1 2.5 3.6 5.4 3.6 5.4h-47.3c-.9 0-1.6-.7-1.6-1.6l-.2-3.8h45.5z" class="colorfff svgShape"/><path fill="#ff987a" d="m390.7 562.8-17.4-1.7-1.6-.1-2.6-26.9h19.4l.8 11z" class="colorff987a svgShape"/><path fill="#f47456" d="M389.3 545.1c-2.4.5-5.1-.5-7.6-.2-3.2.3-6 2.7-6.9 5.7-.9 3.5.6 7.3-1.5 10.5l-1.6-.2-2.6-26.9h19.4l.8 11.1z" class="colorf47456 svgShape"/><path fill="#e8354c" d="m370.3 551.2.9 18.2c0 .9.8 1.6 1.6 1.6h47.3s4.4-3.7-6.8-6.2c-11.2-2.6-17.6-15.3-24.2-18-6.6-2.7-9.8 11-9.8 11l-.3-1.3c-.7-3.4-3.3-6.1-6.8-6.9-1-.3-2 .5-1.9 1.6z" class="colore8354c svgShape"/><path fill="#ffffff" d="M393.2 557.3c.1 0 .2-.1.2-.2v-2.8c0-.1 0-.1-.1-.1h-.1l-2.3.9c-.1 0-.1.1-.1.2s.1.1.2.1l2.1-.8v2.6c-.1 0 0 .1.1.1z" class="colorfff svgShape"/><path fill="#ffffff" d="M400.1 560.9c.1-.1.1-.2 0-.2l-9.4-8.8c-.1-.1-.2-.1-.2 0-.1.1-.1.2 0 .2l9.4 8.8c.1.1.2.1.2 0z" class="colorfff svgShape"/><path fill="#ffffff" d="M393.2 554.5c-.1 0-.3-.1-.3-.4-.1-.4.2-1 .3-1.3.1-.4.5-1.5.9-1.8.5-.5 1.1-.2 1.3.6.1.6-.1 1.3-.6 1.9-.1 0-.9 1-1.6 1 .1 0 0 0 0 0zm1.1-3.3c-.3.3-.7 1.3-.8 1.7-.1.3-.4.9-.3 1.2 0 .1.1.2.1.2.3.1.9-.6 1.2-.9.4-.5.6-1.1.5-1.7-.1-.6-.4-.8-.7-.5zM397.2 558.2c-.1 0-.3-.1-.3-.4-.1-.4.2-1 .3-1.3.1-.4.6-1.5.9-1.8.2-.2.4-.2.6-.2.4.1.6.4.7.8.1.6-.1 1.3-.6 1.9 0 0-.8 1-1.4 1-.2.1-.2.1-.2 0zm1.1-3.2c-.3.3-.7 1.3-.8 1.7-.1.3-.4.9-.3 1.2 0 .1.1.2.1.2.3.1.9-.6 1.2-.9.4-.5.6-1.1.5-1.7 0-.2-.2-.5-.4-.5-.1-.2-.2-.1-.3 0z" class="colorfff svgShape"/><path fill="#ffffff" d="M397.2 561c.1 0 .2-.1.2-.2V558c0-.1 0-.1-.1-.1h-.1l-2.3.9c-.1 0-.1.1-.1.2s.1.1.2.1l2.1-.8v2.6c-.1 0 0 .1.1.1zM416.5 565.6c7.1 2.5 3.6 5.4 3.6 5.4h-47.3c-.9 0-1.6-.7-1.6-1.6l-.2-3.8h45.5z" class="colorfff svgShape"/><path fill="#ff987a" d="m556.6 528.7-2 21-.6 6-19 1.8 1.4-18.6.8-10.2z" class="colorff987a svgShape"/><path fill="#f47456" d="m556.6 528.7-2.1 21c-1-.4-1.8-1.3-2-2.4-.3-1.5.6-3 1.2-4.3.7-1.5 1.2-3.2 1.5-4.8.2-.9.1-2.1-.7-2.5-.7-.4-1.6.1-2.3.5-4.7 2.8-10.4 3.8-15.8 2.6l.8-10.1h19.4z" class="colorf47456 svgShape"/><path fill="#ffc43f" d="m555.4 545.9-.9 18.2c0 .9-.8 1.6-1.6 1.6h-47.3s-4.4-3.7 6.8-6.2c11.2-2.6 17.6-15.3 24.2-18 6.6-2.7 9.8 11 9.8 11l.3-1.3c.7-3.4 3.3-6.1 6.8-6.9 1-.4 2 .5 1.9 1.6z" class="colorffc43f svgShape"/><path fill="#ffffff" d="M532.5 552c-.1 0-.2-.1-.2-.2V549c0-.1.1-.2.2-.1l2.3.9c.1 0 .1.1.1.2s-.1.1-.2.1l-2.1-.8v2.6s0 .1-.1.1z" class="colorfff svgShape"/><path fill="#ffffff" d="M525.6 555.6c-.1-.1-.1-.2 0-.2l9.4-8.8c.1-.1.2-.1.2 0 .1.1.1.2 0 .2l-9.4 8.8h-.2z" class="colorfff svgShape"/><path fill="#ffffff" d="M532.4 549.2c-.6 0-2.3-1.5-2-3 .1-.7.8-1 1.3-.6.4.4 1.3 2.7 1.2 3.1-.1.3-.3.4-.5.5.1 0 0 0 0 0zm-1.7-2.9c-.2 1.3 1.4 2.7 1.7 2.6 0 0 .1 0 .1-.2.1-.3-.7-2.5-1.1-2.8-.3-.3-.6-.1-.7.4zM528.4 552.9c-.6 0-2.3-1.5-2-3 .1-.3.3-.7.7-.8.4-.1.7.3.9.7.4.8 1.4 2.8.5 3 0 .1-.1.1-.1.1zm-1.3-3.4c-.2 0-.3.3-.4.5-.2 1.3 1.4 2.7 1.7 2.6.4-.1-.6-2.3-.7-2.6-.1-.2-.3-.5-.6-.5z" class="colorfff svgShape"/><path fill="#ffffff" d="M528.5 555.7c-.1 0-.2-.1-.2-.2v-2.8c0-.1.1-.2.2-.1l2.3.9c.1 0 .1.1.1.2s-.1.1-.2.1l-2.1-.8v2.6c.1 0 0 .1-.1.1zM509.2 560.3c-7.1 2.5-3.6 5.4-3.6 5.4h47.3c.9 0 1.6-.7 1.6-1.6l.2-3.8h-45.5z" class="colorfff svgShape"/><path fill="#ff987a" d="m498 528.7-2.4 24.6-.2 2.4-19 1.8 1.5-19.1.7-9.7z" class="colorff987a svgShape"/><path fill="#f47456" d="m498 528.7-2.4 24.6c-1.2-.8-2.2-2-2.4-3.5-.3-1.4.2-2.9.7-4.2.5-1.4 1.1-2.7 1.1-4.2 0-1.4-.7-3-2-3.5-1.5-.6-3.1.3-4.6.9-2.1.8-4.4 1.1-6.6.7-1.1-.2-2.6-.6-3.9-1.2l.7-9.7H498z" class="colorf47456 svgShape"/><path fill="#ffc43f" d="m496.8 545.9-.9 18.2c0 .9-.8 1.6-1.6 1.6H447s-4.4-3.7 6.8-6.2c11.2-2.6 17.6-15.3 24.2-18 6.6-2.7 9.8 11 9.8 11l.3-1.3c.7-3.4 3.3-6.1 6.8-6.9 1-.4 2 .5 1.9 1.6z" class="colorffc43f svgShape"/><path fill="#ffffff" d="M473.9 552c-.1 0-.2-.1-.2-.2V549c0-.1 0-.1.1-.1h.1l2.3.9c.1 0 .1.1.1.2s-.1.1-.2.1l-2.1-.8v2.6c.1 0 0 .1-.1.1z" class="colorfff svgShape"/><path fill="#ffffff" d="M467 555.6c-.1-.1-.1-.2 0-.2l9.4-8.8c.1-.1.2-.1.2 0 .1.1.1.2 0 .2l-9.4 8.8h-.2z" class="colorfff svgShape"/><path fill="#ffffff" d="M473.8 549.2c-.6 0-1.4-1-1.4-1-.5-.6-.7-1.3-.6-1.9.1-.3.3-.7.7-.8.4-.1.7.3.9.7.2.4 1 2.2.9 2.6-.1.2-.3.3-.5.4.1 0 .1 0 0 0zm-1.3-3.5c-.2 0-.3.3-.4.5-.1.5.1 1.2.5 1.7.3.4.9 1 1.2.9 0 0 .1 0 .1-.2.1-.4-.6-2-.8-2.4-.1-.2-.3-.5-.6-.5zM469.8 552.9c-.6 0-1.4-1-1.4-1-.5-.6-.7-1.3-.6-1.9.1-.8 1-1.2 1.6-.1.4.7.5 1.2.6 1.5.1.4.3.8.2 1.1-.1.3-.2.4-.3.4h-.1zm-1.7-2.9c-.1.5.1 1.2.5 1.7.3.4 1 1 1.2.9 0 0 .1 0 .1-.2s-.1-.6-.2-.9c-.1-.3-.3-.8-.6-1.5-.4-.7-.9-.6-1 0z" class="colorfff svgShape"/><path fill="#ffffff" d="M470 555.7c-.1 0-.2-.1-.2-.2v-2.8c0-.1.1-.2.2-.1l2.3.9c.1 0 .1.1.1.2s-.1.1-.2.1l-2.1-.8v2.6l-.1.1zM450.6 560.3c-7.1 2.5-3.6 5.4-3.6 5.4h47.3c.9 0 1.6-.7 1.6-1.6l.2-3.8h-45.5z" class="colorfff svgShape"/><path fill="#58082e" d="M557.8 531.9c-5.7 4.8-14.2 6.1-23.4 5.1l-29.9-136.3-4.5 133.4c-9.9 5.5-18.2 5.8-24.9-3.6L470.6 349l7.3.1 56.6 1 2.1 16.1 21.2 165.7z" class="color58082e svgShape"/><path fill="#58082e" d="M557.8 531.9c-5.7 4.8-14.2 6.1-23.4 5.1l-29.9-136.3-4.5 133.4c-9.9 5.5-18.2 5.8-24.9-3.6L470.6 349l7.3.1 56.6 1 2.1 16.1 21.2 165.7z" class="color58082e svgShape"/><path fill="#3d0422" d="M475 528.7v1.8c6.6 9.4 15 9.1 24.9 3.6l.2-5.4c-7.7 3.6-16.2 3-25.1 0zM532.6 529.3l1.7 7.7c9.2 1 17.8-.3 23.4-5.1l-1-7.8c-6.8 4.9-14.9 6.2-24.1 5.2zM536.5 366.3c-36.8 3.7-63.9-15-63.9-15s2-.8 5.2-2.1l56.6 1 2.1 16.1z" class="color3d0422 svgShape"/><path fill="#52c1ff" d="M550.8 269c-2.5 20.8-9.4 47.3-13.7 81.1-1.1 8.6-41.6 8.6-66.3 2.2-1.1-.3-2-1.2-2.2-2.4-2.3-12.6-14.1-83.1 15-88.1 1.5-.3 3.8-.5 6.5-.8 7.8-.7 18.3-1.3 18.3-1.3 5.2 0 13.1.4 20.8 1.4 11.4 1.5 22.1 4.1 21.6 7.9z" class="color52c1ff svgShape"/><path fill="#52c1ff" d="M504 276.2s-39.2 53.6-67 47.1c-27.1-6.4-14-84.8-14-84.8l21.8.1 5.5 46.6s23-22.5 33.7-23.4c7-.6 20 14.4 20 14.4z" class="color52c1ff svgShape"/><path fill="#58082e" d="M445 238.6c0 .9-5.1.2-11 1.5-8.3 1.9-11-.7-11-1.5s4.9-1.5 11-1.5 11 .7 11 1.5z" class="color58082e svgShape"/><path fill="#ff987a" d="M444.8 238.9c-1.1.4-5.6.1-10.7 1.3-1.6.4-3.1.6-4.3.6-1.1-1-1.9-2.2-2.5-3.4-2-3.9-2-8.2-2-8.2s-.5 1.4-2.5 1.9 1-9 1.9-11.2c.8-2.2 3.2-1.2 3.2-1.2 1.2-4.9 4.8-1.9 4.8-1.9 1.2-3 4.1-1.5 4.1-1.5.4-9.9 7.5-15.6 4.6-5.5-2.5 8.8 2 24.5 3.2 28.4 0 .3.1.5.2.7z" class="colorff987a svgShape"/><path fill="#f97a5d" d="M430.3 236.9c-.1 0-.1 0-.2-.1-2.9-3.6-.8-7.5-.3-8.4-5.1-3.4-5.3-5.9-5.2-6.8.1-.8.6-1.3 1.3-1.5.6-.1 1.1 0 1.5.5 1.4 1.7 7.2 3.5 7.3 3.5.1 0 .2.1.1.3 0 .1-.1.2-.3.1-.2-.1-6-1.9-7.4-3.7-.3-.3-.6-.4-1-.3-.4.1-.9.5-1 1.2-.1.8.1 3.2 5.1 6.5l.1.1v.2c-.1.2-2.9 4.2.2 8 .1.1.1.2 0 .3-.1.1-.2.1-.2.1z" class="colorf97a5d svgShape"/><path fill="#f97a5d" d="M425.2 229.4c-.1 0-.2-.1-.2-.2l.6-2.9c0-.1.1-.2.2-.2s.2.1.2.2l-.6 2.9c0 .1-.1.2-.2.2zM434.6 222.2c-.1 0-.2-.1-.2-.2.3-2.5 1-4.8 2.2-6.9.1-.1.2-.1.3-.1.1.1.1.2.1.3-1.1 2-1.8 4.2-2.1 6.7-.1.2-.2.2-.3.2zM431.4 221.3c-.2 0-.2-.1-.2-.3l1.2-4.3c0-.1.1-.2.2-.1.1 0 .2.1.1.2l-1.2 4.3c.1.2 0 .2-.1.2z" class="colorf97a5d svgShape"/><path fill="#ffffff" d="m481.8 286.4 11.2 62.9c.4 2.5-1.5 4.8-4 4.8h-44.6c-2 0-3.6-1.4-4-3.3l-11.2-62.9c-.4-2.5 1.5-4.8 4-4.8h44.6c1.9 0 3.6 1.4 4 3.3z" class="colorfff svgShape"/><path fill="#52c1ff" d="M549.1 266.3s49.7 44.1 40.5 71.2c-8.9 26.4-85.6 5.4-85.6 5.4l1.3-21.3 51.3 3.8s-16.9-19.5-18.1-27.5c-1.3-8.9 10.6-31.6 10.6-31.6z" class="color52c1ff svgShape"/><path fill="#29b2ef" d="M538.7 293.4c-.3 0-.5-.3-.4-.6 1-5.7 4.1-13.3 6.5-18.6.1-.3.4-.4.7-.3.3.1.4.4.3.7-2.4 5.3-5.4 12.8-6.4 18.4-.2.3-.4.4-.7.4zM504 343.3c-.1 0-.2 0-.2-.1-.2-.1-.3-.4-.2-.7 3.4-6.4 3.9-13.4 1.3-20.9-.1-.2 0-.3.1-.5.1-.1.3-.2.4-.2l50.2 3.7-13.8-17.8c-.2-.2-.1-.5.1-.7.2-.2.5-.1.7.1L557 325c.1.2.1.4 0 .5-.1.2-.3.3-.5.3l-50.6-3.7c2.4 7.5 1.9 14.5-1.6 20.9.1.2-.1.3-.3.3z" class="color29b2ef svgShape"/><path fill="#29b2ef" d="m542.2 306.6-.9 16.1 2.9-13.5z" class="color29b2ef svgShape"/><path fill="#080730" d="M506.9 332.2c-.4 5.9-1.6 10.6-2.9 10.6-1.2 0-2-4.8-1.6-10.6.4-5.9 1.6-10.6 2.9-10.6 1.3-.1 2 4.7 1.6 10.6z" class="color080730 svgShape"/><path fill="#3d0422" d="m504.4 400.7-1.5 45-5.7-54.2c1.7.1 3.5.1 5.1-.4l2.1 9.6z" class="color3d0422 svgShape"/><path fill="#4f3c94" d="M498.7 392.1c-3.9 0-7.5-1.2-7.8-1.2-.3-.1-.4-.4-.3-.6.1-.3.4-.4.6-.3.1 0 9.7 3.1 14-.8.2-.2.5-.2.7 0 .2.2.2.5 0 .7-1.9 1.6-4.6 2.2-7.2 2.2z" class="color4f3c94 svgShape"/><path fill="#4f3c94" d="M498.7 392.1c-3.9 0-7.5-1.2-7.8-1.2-.3-.1-.4-.4-.3-.6.1-.3.4-.4.6-.3.1 0 9.7 3.1 14-.8.2-.2.5-.2.7 0 .2.2.2.5 0 .7-1.9 1.6-4.6 2.2-7.2 2.2z" class="color4f3c94 svgShape"/><path fill="#4f3c94" d="M497.2 392c-3.4-.2-6.2-1.1-6.3-1.2-.3-.1-.4-.4-.3-.6.1-.3.4-.4.6-.3 0 0 2.8.9 6.1 1.1 2.7.2 5.9-.1 8-1.9.2-.2.5-.2.7 0 .2.2.2.5 0 .7-.9.8-2 1.4-3.4 1.8-1.8.4-3.6.5-5.4.4z" class="color4f3c94 svgShape"/><path fill="#3d0422" d="M497.2 392c-3.4-.2-6.2-1.1-6.3-1.2-.3-.1-.4-.4-.3-.6.1-.3.4-.4.6-.3 0 0 2.8.9 6.1 1.1 2.7.2 5.9-.1 8-1.9.2-.2.5-.2.7 0 .2.2.2.5 0 .7-.9.8-2 1.4-3.4 1.8-1.8.4-3.6.5-5.4.4zM500 386c-3.9-9.1-2.6-24.3-2.6-25 0-.3.3-.5.5-.5.3 0 .5.3.5.5s-1.4 15.6 2.5 24.5c.1.3 0 .5-.3.7-.2.2-.5 0-.6-.2zM494.9 386c-3.9-9.1-2.6-24.3-2.6-25 0-.3.3-.5.5-.5.3 0 .5.3.5.5s-1.4 15.6 2.5 24.5c.1.3 0 .5-.3.7-.2.2-.5 0-.6-.2zM532.7 370.7c-8.9-3.4-8.1-12.5-8.1-12.6 0-.3.3-.5.5-.4.3 0 .5.3.4.5 0 .3-.7 8.5 7.5 11.6.3.1.4.4.3.6-.1.3-.4.4-.6.3zM473 370c-.1-.2 0-.5.2-.7 7.3-3.8 8-11.1 8-11.2 0-.3.3-.5.5-.5.3 0 .5.3.5.5 0 .3-.7 7.9-8.6 12-.1.2-.4.1-.6-.1z" class="color3d0422 svgShape"/><path fill="#ffffff" d="M529.3 261.6v.2c0 6.4-7 9.9-19.6 9.9-12.6 0-19.6-3.5-19.6-9.9v-.8c7.8-.7 18.3-1.3 18.3-1.3 5.2 0 13.1.4 20.8 1.4l.1.5z" class="colorfff svgShape"/><path fill="#ff987a" d="M523.4 261.8c0 5.4-27.5 5.4-27.5 0l1-9.2.6-5.3s-7-.8-7.7-5.8c-.3-2-.1-4.5.4-7.1.3-2 .8-4 1.4-6.1 2.4-8.6 6.2-17 6.2-17l23.8 2.8-.2 18.8 2 28.9z" class="colorff987a svgShape"/><path fill="#f97a5d" d="M505.6 246.9s.2 6.1-8.7 5.7l.6-5.3c2.7.3 5.5.2 8.1-.4z" class="colorf97a5d svgShape"/><path fill="#58082e" d="M529.6 231s.1-1.7-.4-3.5-1.5-3.6-3.8-4c-4.8-.7-4.7 7.6-4.7 7.6v1.3c-.6-2.3-1.9-5.8 0-7.9-10-.6-2.7-7.4-2.7-7.4-20.2 5.5-21.2-2.7-21.2-2.7-.9.7-1.6 2.9-2.3 4.6-1.5-.9-2.7-2-3.5-3.1-5.2-6.8.8-15.9 4.9-15.8 3.9.1 6.1 6.8 9.6 6.9 4.2.2 4-6.9 15.7-5.8 11.6 1.1 8.6 10.7 8.6 10.7 9.1 1-.2 19.1-.2 19.1z" class="color58082e svgShape"/><path fill="#3d0422" d="M529.6 231s.1-1.7-.4-3.5c.5-.9 1-1.7 1.6-2.5l.3-7.8c0-.7.1-1.4-.1-2.1-.2-.7-.7-1.3-1.3-1.6-.7-.2-1.6.1-1.8.8.4-1.5.9-3.1.7-4.6-.2-1.5-1.2-3.1-2.7-3.5-1.5-.4-3.1.3-4.5.9-7.6 3.1-16.7 2-23.3-2.8-.9-.6-1.8-1.4-2.9-1.3-1.5 0-2.5 1.4-3.1 2.8-1.5 3.2-1.8 6.9-1 10.3-5.2-6.8.8-15.9 4.9-15.8 3.9.1 6.1 6.8 9.6 6.9 4.2.2 4-6.9 15.7-5.8 11.6 1.1 8.6 10.7 8.6 10.7 9 .8-.3 18.9-.3 18.9z" class="color3d0422 svgShape"/><path fill="#3d0422" d="M520.8 225c-3.2-.2-5.1-1-5.6-2.5-.6-1.5.5-3.3 1.4-4.5-10.5 2.6-15.5 1.3-17.9-.3-2.1-1.4-2.3-3.1-2.3-3.2 0-.3.2-.5.4-.6.3 0 .5.2.6.4 0 .1.2 1.4 1.9 2.5 2.3 1.5 7.4 2.7 18.6-.3.2-.1.5 0 .6.2.1.2.1.5-.1.6-.8.8-2.8 3.1-2.3 4.6.4 1.1 2 1.7 4.7 1.8.3 0 .5.3.5.5 0 .6-.2.8-.5.8z" class="color3d0422 svgShape"/><path fill="#58082e" d="M497.5 226.9c.1.7-.4 1.3-1.1 1.3-.7.1-1.3-.4-1.3-1.1-.1-.7.4-1.3 1.1-1.3.6-.1 1.2.4 1.3 1.1zM508.8 229.8c.1.7-.4 1.3-1.1 1.3-.7.1-1.3-.4-1.3-1.1s.4-1.3 1.1-1.3c.7 0 1.3.5 1.3 1.1zM511.9 227.5c.1.3-.1.6-.3.6-2.3-1.5-3.5-1.9-4.9-1.9-.8 0-1.3-1.1-.6-1.5l.1-.1c1.6-.5 5.4 1.3 5.7 2.9zM494.5 222.2c-.2.2-.3.6-.1.6 2.7.1 4 .5 5.1 1.2.7.5 1.6-.2 1.4-.9 0-.1 0-.1-.1-.1-1-1.3-5.2-1.9-6.3-.8z" class="color58082e svgShape"/><path fill="#f97a5d" d="M498.2 235.8c-1-.2-2.2-.4-2.6-1.3-.3-.6-.1-1.3.4-1.9.9-1 2.4-1.1 3.4-1.9.8-.6 1.2-1.6 1.6-2.4l.6-1.3c0-.1.2-.1.3-.1.1 0 .1.2.1.3l-.6 1.3c-.4.8-.8 1.9-1.7 2.6-1 .7-2.6 1-3.4 1.8-.4.4-.6.9-.4 1.4.3.5 1.1.8 1.7 1 .2.1.4.1.7.2.1 0 .2.1.2.2-.1.1-.2.2-.3.1zM497.1 241.9c-2.2 0-3.2-1.9-3.2-1.9-.1-.1 0-.2.1-.3.1-.1.2 0 .3.1.1.1 1.5 2.6 4.6 1.3.1 0 .2 0 .3.1 0 .1 0 .2-.1.3-.8.3-1.4.4-2 .4z" class="colorf97a5d svgShape"/><path fill="#ff987a" d="M521.2 226.4c.5-1.8 1.4-2.8 3-3.1s3.3.5 4.3 1.6c2 2.1 2 5.5.2 7.8s-6 4.5-7.4 3.5c-1.9-1.4-.8-7.4-.1-9.8z" class="colorff987a svgShape"/><path fill="#f97a5d" d="M523.4 231.4c-.1 0-.2-.1-.2-.2-.2-3.4 3.1-4.3 3.2-4.3.1 0 .2 0 .2.1s0 .2-.1.2-3 .8-2.9 3.9c0 .2-.1.2-.2.3z" class="colorf97a5d svgShape"/><path fill="#f97a5d" d="M523.4 231.4c-.1 0-.2-.1-.2-.2 0 0 .1-1 .9-1.5.6-.4 1.4-.4 2.5 0 .1 0 .2.2.1.3 0 .1-.2.2-.3.1-.9-.3-1.6-.4-2.1 0-.6.4-.7 1.2-.7 1.2s-.1.1-.2.1z" class="colorf97a5d svgShape"/><path fill="#ff987a" d="M506.9 332.2c-.1 1.6-.3 3-.5 4.4H503c-.2.1-.4.2-.5.3-.1 0-.1.1-.2.1-8.6 4.3-14.7-.9-14.7-.9s-14.4-.4-14.4-2 11.6-1.8 11.6-1.8-10.5-.1-13.8-.9c-3.3-.8-.2-2.5-.2-2.5-2.6-.3-1.8-2.6-.4-2.5.9 0 14.8-.7 14.8-.7-14.5-1.4-12.8-3.4-11.5-3.6 1.3-.3 14.3.3 14.3.3l-.9-5.2c1.1.3 2.1.7 3.1 1.1 4.5 1.8 8.3 4.1 11.3 7.2h5.2c.3 1.7.4 4.1.2 6.7z" class="colorff987a svgShape"/><path fill="#f97a5d" d="M470.9 329c-.1 0-.2-.1-.2-.2s.1-.2.2-.2l11.8-.3c.1 0 .2.1.2.2s-.1.2-.2.2l-11.8.3zM488 331.6c-1.5-4.4 1.5-7.2 1.5-7.2.1-.1.2-.1.3 0 .1.1.1.2 0 .3 0 0-2.8 2.7-1.4 6.8 0 .1 0 .2-.1.3-.2 0-.3-.1-.3-.2z" class="colorf97a5d svgShape"/><path fill="#ffffff" d="m352.6 475.1-21-139.9-74.3 2.4 22.9 137.5z" class="colorfff svgShape"/><path fill="#ffc43f" d="m373.7 407.9-1.7 13s-75.4 2.4-84.2 0c-6.2-1.7-4.7-10-3.2-14.8-14.2-6.8-11.4-29.3-2.5-53.4 11.9-32 22.7-28.8 32.6-27h.2c7.9 1.4 24.7 2.8 24.7 2.8 3.6-.6 8.2-2 13.3-1.9 9 .2 19.6 5.1 29.5 26.5 13 27.9 21 53.6-8.7 54.8z" class="colorffc43f svgShape"/><path fill="#ff987a" d="m392.8 377-5.7-13.4-18.1 1.9.6 34.1c3.3-.3 27.8 1.6 30.8 1.5v-22.6l-7.6-1.5z" class="colorff987a svgShape"/><path fill="#f2a41c" d="M368.5 365.8c-.5-6.7-3.1-13.2-7.7-19.5-.2-.2-.1-.5.1-.7.2-.2.5-.1.7.1 4.8 6.4 7.5 13.2 7.9 20 0 .3-.2.5-.5.5-.2.1-.4-.1-.5-.4zM309.1 372.1c-.3-.1-.4-.4-.3-.7l5.4-12.3c.1-.3.4-.4.7-.3.3.1.4.4.3.7l-5.4 12.3c-.2.2-.5.4-.7.3z" class="colorf2a41c svgShape"/><path fill="#ff987a" d="M360 404.6s-1.1 1-8.3.9c-2.1 0-3.9-.4-5.4-.8l-.1 3.5s-16.8-1.4-48.3 0c-23.4 1-27.2-15.2-21.4-36.6 9-3.2 21.9-2.2 32.7 0l-5.1 12c14.2.9 17.1 9.6 39.2 11 1.7.1 3.4.5 5.1 1.1 1.6.6 4.4 1.1 8.2.1 6.6-1.8 10.5 5.8 11.8 8.5 1.4 2.6-8.4.3-8.4.3z" class="colorff987a svgShape"/><path fill="#ff987a" d="M343.4 402.1s8.9-4.2 11.9-3.6c2.7.5 4.3 3.9 6.2 6.3s-2.9 3.9-4.7 1.5c-.4-.5-2.6-2.5-2.6-2.5l-10.5 1.7" class="colorff987a svgShape"/><path fill="#ef7154" d="M359.5 407.8c-1 0-2.1-.3-2.9-1.3-.3-.4-1.8-1.7-2.5-2.3l-10.4 1.7c-.1 0-.3-.1-.3-.2s.1-.3.2-.3l10.5-1.7c.1 0 .1 0 .2.1.2.2 2.3 2 2.6 2.5.7 1 2 1.2 2.9 1.1.8-.1 1.5-.5 1.7-1 .2-.4.1-.8-.3-1.3-.5-.6-.9-1.2-1.3-1.9-1.3-2-2.7-4-4.7-4.4-3-.5-11.7 3.6-11.8 3.6-.1.1-.3 0-.3-.1-.1-.1 0-.3.1-.3.4-.2 9-4.2 12.1-3.6 2.2.4 3.7 2.5 5.1 4.6.4.6.9 1.3 1.3 1.8.6.8.5 1.4.4 1.8-.3.7-1.1 1.2-2.1 1.3-.2-.1-.3-.1-.5-.1z" class="coloref7154 svgShape"/><path fill="#ef7154" d="M363.1 407.6c-1 0-2.1-.3-2.9-1.3-.1-.1-.1-.3.1-.3.1-.1.3-.1.3.1.7 1 2 1.2 2.9 1.1.8-.1 1.5-.5 1.7-1 .2-.4.1-.8-.3-1.3-.5-.6-.9-1.2-1.3-1.9-1.3-2-2.7-4-4.7-4.4-.7-.1-1.7 0-3 .3-.1 0-.3 0-.3-.2 0-.1 0-.3.2-.3 1.4-.3 2.5-.5 3.2-.3 2.2.4 3.7 2.5 5.1 4.6.4.6.8 1.3 1.3 1.8.6.8.5 1.4.4 1.8-.3.7-1.1 1.2-2.1 1.3-.3-.1-.4 0-.6 0z" class="coloref7154 svgShape"/><path fill="#ef7154" d="M366.7 407.3c-1 0-2.1-.3-2.9-1.3-.1-.1-.1-.3.1-.3.1-.1.3-.1.3.1.7 1 2 1.2 2.9 1.1.8-.1 1.5-.5 1.7-1 .2-.4.1-.8-.3-1.3-.5-.6-.9-1.2-1.3-1.9-1.3-2-2.7-4-4.7-4.4-.6-.1-1.6 0-2.9.3-.1 0-.3-.1-.3-.2s.1-.3.2-.3c1.3-.3 2.4-.4 3.1-.3 2.2.4 3.7 2.5 5.1 4.6.4.6.9 1.3 1.3 1.8.6.8.5 1.4.4 1.8-.3.7-1.1 1.2-2.1 1.3h-.6z" class="coloref7154 svgShape"/><path fill="#ffffff" d="M353.8 331.1v.5c0 2.4-1.2 10-15.1 10-8.6 0-22-3.1-23.8-11.8-.3-1.3-.2-2.6.1-3.9v-.2c7.9 1.4 24.7 2.8 24.7 2.8 3.6-.6 8.2-2 13.3-1.9l.8 4.5z" class="colorfff svgShape"/><path fill="#ff987a" d="M348 331.6c-.1 7.6-25.9 4.2-27.4-2.9-.1-.4 0-.9.1-1.3l2.3-10.9c-9 .1-11.4-6.4-11.3-13.8 0-2 .3-4 .6-6 1.2-7.5 4-14.4 4-14.4l25.7-.5V296l1.9 11.3 4.1 24.3z" class="colorff987a svgShape"/><path fill="#58082e" d="M349.9 301.5c.1-.3 1.3-3 1.3-5.2 0-1.4-.5-2.5-1.9-2.7-4-.6-8.4 6.3-8.4 6.3l.6-3.7c-8.8-.4-4.2-8.1-4.2-8.1-6.6 3.7-21.2 3.2-22.1-2.2l-1.6 5.2c-.6-.5-1.1-1-1.5-1.5-3.1-3.8 2.7-5.5 2.7-5.5-3.5-8.2 4.4-6.8 4.4-6.8-3.6-8.6 17.5-4.9 23.9-2.3 6.4 2.6 1 9.9 1 9.9s5.4-2.1 9.2 1.1c6.2 5.3-2.8 14.8-3.4 15.5z" class="color58082e svgShape"/><path fill="#3d0422" d="M341.5 296.6c-2.8-.1-4.6-1-5.4-2.5-.9-1.6-.4-3.7.1-5-5.3 2.2-13.9 2.4-18.5.3-1.8-.9-2.9-2.1-3.1-3.5 0-.3.1-.5.4-.6.3 0 .5.1.6.4.2 1.1 1 2 2.6 2.7 4.7 2.2 14 1.8 18.9-.9.2-.1.4-.1.6.1.2.2.2.4.1.6 0 0-1.9 3.2-.8 5.3.6 1.2 2.2 1.9 4.6 2 .3 0 .5.2.5.5-.1.4-.3.6-.6.6z" class="color3d0422 svgShape"/><path fill="#3d0422" d="M352.8 294.6c.9-1.6.6-3.8-.5-5.3s-2.9-2.4-4.7-2.9c-1.8-.5-3.7-.5-5.6-.5 1.2-2.2 2.4-4.9 1.3-7.2-1.1-2.3-4-3-6.6-3.4-3.6-.6-7.1-1.1-10.6-1.7-1.1-.2-2.3-.4-3.5-.2-1.1.2-2.3.8-2.7 1.9-.4.9-.2 2.2.6 2.7-1.5-.8-3.6-.4-4.7 1-1.2 1.5-1 3.8.4 5.1-1.7.3-2.6 2-3.3 3.6-.3.6-.6 1.2-1 1.7-3.1-3.8 2.7-5.5 2.7-5.5-3.5-8.2 4.4-6.8 4.4-6.8-3.6-8.6 17.5-4.9 23.9-2.3 6.4 2.6 1 9.9 1 9.9s5.4-2.1 9.2 1.1c6.3 5.4-2.6 15-3.2 15.6.1-.3 1.3-3 1.3-5.2.7-.4 1.2-.9 1.6-1.6z" class="color3d0422 svgShape"/><path fill="#ff987a" d="M340.2 300.5c.3-2 1.3-3.8 2.7-5.3 1.4-1.4 3.2-2.4 5.1-2.9.7-.2 1.6-.2 2.3.1.9.4 1.4 1.2 1.8 2.1.5 1.4.4 2.9-.1 4.3-.5 1.3-1.4 2.3-2.3 3.3-.9 1-1.8 2.1-2.7 3.1-.6.7-1.2 1.3-2 1.8s-1.8.5-2.5 0-.9-1.4-1.1-2.2c-.3-1.1-.6-2.2-.8-3.4l-.4-.9z" class="colorff987a svgShape"/><path fill="#080730" d="M383.6 364.2c-1.7 0-3.2 1.2-3.6 2.9l-8.5 35.9c0 .2-.1.4-.1.6h.8v2.7c.7.8 1.7 1.4 2.9 1.4h-33.4v-1.2c0-1.6 1.3-2.8 2.8-2.8h23.9c0-.2 0-.4.1-.6l8.5-35.9c.4-1.7 1.9-2.9 3.7-2.9h2.9z" class="color080730 svgShape"/><path fill="#1a1459" d="m438.8 368.8-8.5 35.9c-.4 1.7-1.9 2.9-3.6 2.9h-51.5c-2.4 0-4.2-2.3-3.6-4.6l8.5-35.9c.4-1.7 1.9-2.9 3.6-2.9h51.5c2.4 0 4.1 2.3 3.6 4.6z" class="color1a1459 svgShape"/><path fill="#080730" d="m438.8 368.8-8.5 35.9c-.4 1.7-1.9 2.9-3.6 2.9h-51.5c-2.4 0-4.2-2.3-3.6-4.6l1.8-7.6c6.4 4.4 14.2 7 22.6 7 21.4 0 38.9-17 39.7-38.2 2 .3 3.6 2.4 3.1 4.6z" class="color080730 svgShape"/><path fill="#e7dcf9" d="M361.8 478.8h-83.2c-4.4 0-8.2-3.2-8.9-7.5l-21.1-126.5c-.7-3.9 2-7.7 6-8.3 3.9-.7 7.7 2 8.3 6l20.3 121.9h78.5c4 0 7.2 3.2 7.2 7.2.1 4-3.1 7.2-7.1 7.2z" class="colore7dcf9 svgShape"/><path fill="#1a1459" d="M354.4 479.3h-75.7c-.3 0-.5-.2-.5-.5s.2-.5.5-.5h75.7c.3 0 .5.2.5.5s-.2.5-.5.5z" class="color1a1459 svgShape"/><path fill="#4f3c94" d="m418.1 449.5-2.4 88.3c0 2.1-1.8 3.7-3.8 3.7h-19.2c-1.9 0-3.5-1.4-3.8-3.3L378 464.4s-39.1-.1-61-2.4c-21.9-2.2-8.8-40.9-8.8-40.9h82.5c15.4.1 27.9 12.9 27.4 28.4z" class="color4f3c94 svgShape"/><path fill="#3c2d87" d="M406.3 532.7c-.2 3.3-1.6 6.3-3.8 8.8h-9.9c-1.9 0-3.5-1.4-3.8-3.3L378 464.4s-39.1-.1-61-2.4c-21.9-2.2-8.8-40.9-8.8-40.9h69.3c2.2 1.1 4.4 2.4 6.6 3.9 5.3 3.6 7.7 3.5 11.6 8.7 10.5 14 6.2 27.2 5.3 50.4-.4 10.4-.2 24.2 2 34.3.9 4.9 3.5 9.4 3.3 14.3z" class="color3c2d87 svgShape"/><path fill="#ffffff" d="m387.9 531.9.9 6.3c.3 1.9 1.9 3.3 3.8 3.3h19.2c2.1 0 3.8-1.7 3.8-3.7l.2-5.9h-27.9z" class="colorfff svgShape"/><path fill="#4f3c94" d="m398.9 449.5-7.4 88.6c-.2 2-1.8 3.5-3.8 3.5h-19.5c-2 0-3.7-1.5-3.8-3.6l-5.6-73.6s-39.1-.1-61-2.4c-21.9-2.2-8.8-40.9-8.8-40.9h82.5c15.4.1 27.9 12.9 27.4 28.4z" class="color4f3c94 svgShape"/><path fill="#ff987a" d="M489.6 416 516 564.1h4.5L497.3 416zM473.6 416l-26.4 148.1h-4.4L465.9 416z" class="colorff987a svgShape"/><path fill="#ff987a" d="M457 482.6h49.6v8H457zM265.8 416l26.4 148.1h4.4L273.5 416zM249.8 416l-26.4 148.1H219L242.1 416z" class="colorff987a svgShape"/><path fill="#ff987a" d="M233.2 482.6h49.6v8h-49.6z" class="colorff987a svgShape"/><path fill="#3c2d87" d="M524.7 412.1c0 2.4-2 4.4-4.4 4.4h-289c-2.4 0-4.4-2-4.4-4.4 0-2.4 2-4.4 4.4-4.4h289c2.5 0 4.4 1.9 4.4 4.4z" class="color3c2d87 svgShape"/><path fill="#58082e" d="M329.8 298.1c0 .9-.7 1.5-1.5 1.5-.9 0-1.5-.7-1.5-1.5 0-.9.7-1.5 1.5-1.5.9 0 1.5.7 1.5 1.5zM318.7 295.9c0 .9-.7 1.5-1.5 1.5-.9 0-1.5-.7-1.5-1.5 0-.9.7-1.5 1.5-1.5s1.5.7 1.5 1.5zM333.1 295.2c-.2.8-1.8.2-3.8-.2-2-.4-3.7-.6-3.6-1.4.2-.8 2-1.1 4-.7 2.1.5 3.6 1.5 3.4 2.3zM321.3 293.1c-.2.8-1.8.2-3.8-.2-2-.4-3.7-.6-3.6-1.4.2-.8 2-1.1 4-.7 2 .5 3.5 1.5 3.4 2.3z" class="color58082e svgShape"/><path fill="#f97a5d" d="M318.9 305.7c-2.8-.5-2.9-2.5-1.5-3.7.5-.5 1.2-.7 1.8-1.1 2.6-1.5 4.1-4.8 3.5-7.7 0-.1 0-.2.2-.2.1 0 .2 0 .2.2.6 3.1-1 6.6-3.7 8.2-.6.4-1.2.6-1.8 1-1.2 1-1.1 2.5 1.3 3 1 .2 2.1.3 3.1.3.1 0 .2.1.2.2s-.1.2-.2.2c-1-.1-2-.2-3.1-.4zM317 308.5c-.1-.1 0-.2.1-.3.1-.1.2 0 .3.1.1.1 1.6 2.7 5.4 1.1.1 0 .2 0 .3.1 0 .1 0 .2-.1.3-3 1.2-5.2.2-6-1.3z" class="colorf97a5d svgShape"/><path fill="#ffffff" d="m204.3 199.6-.9 4.1c-.2.7.6 1.3 1.3 1l4.9-2.2c4.3 2 9.1 3.1 14.2 3.1 19.6 0 35.4-16.6 34-36.5-1.2-16.8-14.8-30.4-31.6-31.6-19.9-1.4-36.5 14.4-36.5 34-.1 11.7 5.7 21.9 14.6 28.1z" class="colorfff svgShape"/><path fill="#2c1e70" d="M255.5 183.7c-.1 0-.2-.2-.1-.3.3-.7.5-1.4.7-2.1 0-.1.2-.2.3-.2.1 0 .2.2.2.3-.2.7-.5 1.4-.7 2.1-.1.2-.3.3-.4.2zM223.7 205.9c-.1 0-.3-.1-.3-.3s.1-.3.3-.3c11.5 0 22.1-5.7 28.3-15.4.1-.1.2-.1.3-.1.1.1.1.2.1.3-6.4 10-17.1 15.8-28.7 15.8zM190.8 162.4c-.1 0-.2-.2-.2-.3.3-1.2.8-2.4 1.3-3.6.1-.1.2-.2.3-.1.1.1.2.2.1.3-.5 1.2-.9 2.4-1.2 3.6 0 0-.2.1-.3.1zM196.3 151.2c-.1-.1-.1-.2 0-.4 3.6-4.7 8.3-8.5 13.7-10.8.1-.1.3 0 .3.1.1.1 0 .3-.1.3-5.3 2.3-10 6-13.5 10.7-.2.2-.3.2-.4.1z" class="color2c1e70 svgShape"/><path fill="#ffc43f" d="M215.3 156.5c-4 4.2-5.2 9.9-3.7 15 .6 2.3.3 4.7-1.1 6.6l-3.2 3.8c-1.3 1.6-1.1 4 .5 5.4l3.3 2.8c1.6 1.3 4 1.1 5.4-.5l3.2-3.8c.3-.3.6-.6 1-.9 1.4-1.3 3.3-1.9 5.2-1.8 4.8.3 9.7-1.6 13-5.6 5.7-6.8 4.6-17-2.4-22.5-6.5-5.1-15.7-4.4-21.2 1.5z" class="colorffc43f svgShape"/><path fill="#ffb92f" d="M211.5 171.5c.6 2.3.3 4.7-1.1 6.6l-3.2 3.8c-1.3 1.6-1.1 4 .5 5.4l3.3 2.8c1.6 1.3 4 1.1 5.4-.5l3.2-3.8c.3-.3.6-.6 1-.9 1.4-1.3 3.3-1.9 5.2-1.8h1.8c-.6-.4-1.2-.9-1.8-1.4-8.3-6.9-9.5-19.3-2.5-27.7.7-.9 1.5-1.6 2.3-2.3-3.8.3-7.5 1.9-10.3 4.8-4 4.2-5.2 9.9-3.8 15z" class="colorffb92f svgShape"/><path fill="#ffffff" d="M214.9 181.4c1.9-1.6 3.7-7 5.1-10.5-.4-.2-.7-.6-1.1-.9-.7-.7-1.3-1.4-1.3-2.2-.1-1.7 1.9-3.1 3.4-3 1.3.1 2.2 1.4.9 3.3-.4.6-.8 1.5-1.3 2.6.1 0 .3.1.4.1.4 0 .7-.1 1.1-.3 1.6-.6 2.7.4 2.4 2-.1.4-.2.7-.1 1.1 0 .2.1.3.2.4.9-.7 1.7-1.3 2.3-1.8.5-.5 1.3-1.2 2.2-.9.9.2 1.6 1.3 1.1 2.9-.6 2.1-2.2 3-4.7 1.3-.4-.2-.7-.5-1-.8-3 2.1-7.7 5.1-9 7.3-.2-.3-.7-.7-.6-.6zm9-7.8c-.1-.4 0-.9.1-1.3.2-1.2-.5-2-1.7-1.5-.4.1-.8.3-1.2.3-.2 0-.4 0-.6-.1-1.1 2.7-2.3 6.2-3.6 8.5 2-1.8 5-3.7 7.3-5.4-.2-.1-.3-.3-.3-.5zm-2.4-5.8c1.1-1.6.5-2.5-.6-2.6-1.2-.1-3 1.1-2.9 2.5.1.7.6 1.3 1.2 1.9.3.3.6.6.9.8.5-1 1-1.9 1.4-2.6zm7.4 3.9c-.5-.1-1.1.1-1.8.8-.6.5-1.4 1.2-2.3 1.8.3.3.6.5.9.7 2.2 1.5 3.5.7 4-1 .4-1.4-.2-2.2-.8-2.3z" class="colorfff svgShape"/><path fill="#52c1ff" d="M210.7 177.7c-.4.6-3.5 4.2-3.7 4.5-1.1 1.6-.8 3.8.7 5.1l3.3 2.8c1.5 1.3 3.7 1.1 5.1-.2.3-.3 3.3-3.9 3.7-4.4l-9.1-7.8z" class="color52c1ff svgShape"/><path fill="#29b2ef" d="M213.8 177.1h.5V189h-.5z" transform="rotate(-50.186 214.069 183.079)" class="color29b2ef svgShape"/><path fill="#29b2ef" d="M212.7 178.5h.5v11.9h-.5z" transform="rotate(-50.186 212.914 184.464)" class="color29b2ef svgShape"/><path fill="#29b2ef" d="M207.3 181.8c-.2.2-.2.3-.3.4l9.1 7.6c.1-.1.2-.2.2-.3l.1-.1-9.1-7.6z" class="color29b2ef svgShape"/><path fill="#4f3c94" d="M207.6 187.2c-.4.5-.4 1.3.2 1.8l1.7 1.4c.5.4 1.3.4 1.8-.2l-3.7-3z" class="color4f3c94 svgShape"/><path fill="#2c1e70" d="m207.3 187.6 3.1 2.6c-.1.2-.3.3-.5.4.5.1.9 0 1.3-.4l-3.6-3c-.1.1-.2.2-.3.4z" class="color2c1e70 svgShape"/><ellipse cx="234.4" cy="166.7" fill="#ffffff" opacity=".2" rx="2.3" ry="6.5" transform="rotate(-8.069 234.38 166.72)" class="colorfff svgShape"/><path fill="#2c1e70" d="M238.4 153c-.1-.1-.1-.2 0-.4l1.1-1.3c.1-.1.2-.1.4 0 .1.1.1.2 0 .4l-1.1 1.3c-.1.1-.3.1-.4 0zM247.6 170.2c-.1 0-.2-.1-.2-.2s.1-.3.2-.3l1.7-.2c.2 0 .3.1.3.2s-.1.3-.2.3l-1.8.2zM220.1 147.3c-.1 0-.2-.1-.2-.2l-.2-1.7c0-.1.1-.3.2-.3s.3.1.3.2l.2 1.7c-.1.2-.2.3-.3.3z" class="color2c1e70 svgShape"/><path fill="#2c1e70" d="M238.4 153c-.1-.1-.1-.2 0-.4l1.1-1.3c.1-.1.2-.1.4 0 .1.1.1.2 0 .4l-1.1 1.3c-.1.1-.3.1-.4 0z" class="color2c1e70 svgShape"/><path fill="#ffffff" d="m337.9 251.7 1.5 3.7c.3.7 1.2.7 1.5.1l2.6-4.3c4.4-.8 8.7-2.5 12.6-5.2 15.2-10.6 18.5-31.9 6.7-46.6-10-12.4-27.9-15.6-41.5-7.5-16.2 9.7-20.6 30.8-10 46 6.4 8.9 16.4 13.8 26.6 13.8z" class="colorfff svgShape"/><path fill="#2c1e70" d="M368.8 211.6c-.2-.7-.4-1.3-.6-2 0-.1 0-.3.2-.3.1 0 .3 0 .3.2.2.7.4 1.3.6 2 0 .1 0 .3-.2.3-.1 0-.2-.1-.3-.2zM356 246.1c-.1-.1-.1-.3.1-.3 8.9-6.2 14-16.3 13.7-27.2 0-.1.1-.3.2-.3s.2.1.3.2c.3 11-4.9 21.3-13.9 27.6-.2.1-.3.1-.4 0zM307.4 230.1c-.1 0-.2-.1-.2-.2-.4-1.1-.7-2.3-1-3.5 0-.1.1-.3.2-.3s.3.1.3.2c.3 1.2.6 2.3 1 3.4-.1.2-.1.3-.3.4zM305.7 218.5c-.1 0-.3-.1-.3-.3.2-5.6 1.9-11 4.8-15.7.1-.1.2-.2.3-.1.1.1.2.2.1.3-2.9 4.7-4.5 10-4.7 15.5 0 .2-.1.3-.2.3z" class="color2c1e70 svgShape"/><path fill="#ffc43f" d="M358 209.8v20.1c0 1.7-1.4 3.1-3.1 3.1h-34.2c-1.7 0-3.1-1.4-3.1-3.1v-20.1c0-.6.2-1.2.5-1.7.5-.8 1.5-1.4 2.5-1.4H355c1.1 0 2 .5 2.5 1.4.4.5.5 1.1.5 1.7z" class="colorffc43f svgShape"/><path fill="#ffb92f" d="M358 227.3v2.6c0 1.7-1.4 3.1-3.1 3.1h-34.2c-1.7 0-3.1-1.4-3.1-3.1V227c11.2 5.4 28.9 5.6 40.4.3zM357.5 208.1l-18.2 15.1c-.9.7-2.1.7-3 0l-18.2-15.1c.5-.8 1.5-1.4 2.5-1.4H355c.4 0 .7.1 1 .2.6.2 1.2.6 1.5 1.2z" class="colorffb92f svgShape"/><path fill="#ffffff" d="M356 207.2c0 2.5-7.7 4.6-17.3 4.6-9.6 0-17.3-2-17.3-4.6 0-.2 0-.3.1-.4H355c.4 0 .7.1 1 .2v.2z" opacity=".2" class="colorfff svgShape"/><path fill="#e8354c" d="M509.9 237.6c-.5 1.6-2.5 2.5-4.4 1.9-1.9-.6-3-2.4-2.4-4.1.5-1.6 2.5-2.5 4.4-1.9 1.9.7 3 2.5 2.4 4.1zM494.5 232c-.3 1.7-2.1 2.8-4.1 2.4h-.2c.3-2 .8-4 1.4-6.1 1.9.4 3.2 2.1 2.9 3.7z" opacity=".3" class="colore8354c svgShape"/><path fill="#29b2ef" d="M571 331.9c-5.4-5.6-14.3-6.1-14.4-6.1-.3 0-.5-.2-.5-.5s.2-.5.5-.5c.4 0 9.4.5 15.1 6.4.2.2.2.5 0 .7-.2.2-.5.2-.7 0z" class="color29b2ef svgShape"/><path fill="#f97a5d" d="M506.9 332.2c-.1 1.6-.3 3-.5 4.4H503c-.2.1-.4.2-.5.3l-.3-.9c-.2-1.4.2-2.8-.1-4.2-.3-1.3-1.3-2.5-2.3-3.3-1.1-.9-2.3-1.5-3.4-2.3-1.9-1.5-3.4-3.4-4.7-5.4-.3-.5-1.4-1.8-1.4-2.6 4.5 1.8 8.3 4.1 11.3 7.2h5.2c.2 1.8.3 4.2.1 6.8z" class="colorf97a5d svgShape"/><path fill="#3c2d87" d="M374.2 533.3c-.2 2.9-.6 5.8-2.1 8.2h-3.8c-2 0-3.7-1.5-3.8-3.6l-5.6-73.6s-39.1-.1-61-2.4c-21.9-2.2-8.8-40.9-8.8-40.9h3.7c1.2 2.6.1 7 .5 9.8.5 3.6 1.6 7.1 3.9 9.9 4.5 5.5 12.2 7 19.3 8.2 10.3 1.7 20.6 3.3 30.9 5 6.4 1 13.2 2.3 17.9 6.8 4.8 4.6 6.3 11.6 7.3 18.1 2.6 18.1 3.2 36.4 1.6 54.5z" class="color3c2d87 svgShape"/><path fill="#ffffff" d="m363.9 531.5.5 6.5c.2 2 1.8 3.6 3.8 3.6h19.5c2 0 3.7-1.5 3.8-3.5l.5-6.5h-28.1z" class="colorfff svgShape"/><path fill="#ef7154" d="M289.1 399.3c-.2 0-.3-.1-.2-.3 2.7-12.8 15.2-15.7 15.3-15.7.1 0 .3.1.3.2s-.1.3-.2.3-12.3 2.8-14.9 15.3c-.1.2-.2.2-.3.2z" class="coloref7154 svgShape"/><path fill="#ef7154" d="M318.5 388.1c-5.7-3.5-14.4-4.2-14.5-4.3-.1 0-.2-.1-.2-.1v-.2l3-6.7c.1-.1.2-.2.3-.1.1.1.2.2.1.3l-2.9 6.4c1.7.2 9.2 1.1 14.3 4.3.1.1.2.2.1.3.1.1-.1.2-.2.1z" class="coloref7154 svgShape"/><path fill="#f97a5d" d="M323 316.5s2.7 0 7.1-2.7c0 0-1.3 6.5-8.3 8.4l1.2-5.7zM343.2 301.1c-.1 0-.2-.1-.2-.2 1.1-5.1 5.8-4.5 5.9-4.5.1 0 .2.1.2.2s-.1.2-.2.2c-.2 0-4.4-.5-5.4 4.2-.1.1-.2.1-.3.1z" class="colorf97a5d svgShape"/><path fill="#f97a5d" d="M343.4 300.6c-.2 0-.2-.2-.2-.3.8-2.7 4.9-1.6 5-1.5.1 0 .2.1.1.2 0 .1-.1.2-.2.1 0 0-3.8-1.1-4.5 1.3 0 .1-.1.2-.2.2z" class="colorf97a5d svgShape"/><path fill="#ffffff" d="M409.9 385.4c-.5 1.9-2.4 3.4-4.3 3.4s-3-1.5-2.6-3.4c.5-1.9 2.4-3.4 4.3-3.4 2 0 3.1 1.5 2.6 3.4zM537.2 147.2V177c0 2.5-2 4.5-4.5 4.5h-13.1v9.5c0 1.2-1.3 1.9-2.3 1.3l-17.8-10.8H387.2c-2.5 0-4.5-2-4.5-4.5v-29.8c0-2.5 2-4.5 4.5-4.5h145.5c2.5 0 4.5 2 4.5 4.5z" class="colorfff svgShape"/><path fill="#2c1e70" d="M537.2 177.3c-.1 0-.2-.1-.2-.2v-24.8c0-.1.1-.2.2-.2s.2.1.2.2v24.8c0 .1-.1.2-.2.2z" class="color2c1e70 svgShape"/><path fill="#2c1e70" d="M537.2 152.4c-.1 0-.2-.1-.2-.2v-5c0-2.4-1.9-4.3-4.3-4.3h-88c-.1 0-.2-.1-.2-.2s.1-.2.2-.2h88c2.6 0 4.7 2.1 4.7 4.7v5c0 .1-.1.2-.2.2zM430.2 142.9h-11c-.1 0-.2-.1-.2-.2s.1-.2.2-.2h11c.1 0 .2.1.2.2s-.1.2-.2.2z" class="color2c1e70 svgShape"/><path fill="#ccb0f4" d="M417.8 162.8c0 6.8-5.5 12.3-12.3 12.3-6.8 0-12.3-5.5-12.3-12.3 0-6.8 5.5-12.3 12.3-12.3 6.8 0 12.3 5.5 12.3 12.3z" class="colorccb0f4 svgShape"/><path fill="#e4d2f9" d="M524.7 156.3h-44.5c-.1 0-.2-.1-.2-.2s.1-.2.2-.2h44.5c.1 0 .2.1.2.2s0 .2-.2.2zM468 156.3h-22.4c-.1 0-.2-.1-.2-.2s.1-.2.2-.2H468c.1 0 .2.1.2.2s-.1.2-.2.2zM524.7 162.4h-95.1c-.1 0-.2-.1-.2-.2s.1-.2.2-.2h95.1c.1 0 .2.1.2.2s0 .2-.2.2zM492.2 168.5h-27.4c-.1 0-.2-.1-.2-.2s.1-.2.2-.2h27.4c.1 0 .2.1.2.2s-.1.2-.2.2zM453.7 168.5h-24c-.1 0-.2-.1-.2-.2s.1-.2.2-.2h24c.1 0 .2.1.2.2s-.1.2-.2.2z" class="colore4d2f9 svgShape"/><path fill="#ffffff" d="m410.1 159.4-5.3 7.3c-.2.2-.5.2-.7 0l-3.2-4.8c-.2-.4.2-.8.5-.6l2.9 1.6 5.1-4c.5-.4 1 .1.7.5z" class="colorfff svgShape"/><path fill="#2c1e70" d="M459.9 181.8h-49.3c-.1 0-.2-.1-.2-.2s.1-.2.2-.2h49.3c.1 0 .2.1.2.2s-.1.2-.2.2zM401.8 181.8h-2.7c-.1 0-.2-.1-.2-.2s.1-.2.2-.2h2.7c.1 0 .2.1.2.2s-.1.2-.2.2z" class="color2c1e70 svgShape"/><path fill="#e8354c" d="M332.9 304.9c-.5 1.6-2.5 2.5-4.4 1.9-1.9-.6-3-2.4-2.4-4.1.5-1.6 2.5-2.5 4.4-1.9 1.8.6 2.9 2.4 2.4 4.1zM316.5 301c-.5 1.6-2.5 2.5-4.3 1.9-.1 0-.3-.1-.4-.1 0-2 .3-4 .6-6 .5-.1 1.1 0 1.7.2 1.8.5 2.9 2.4 2.4 4z" opacity=".3" class="colore8354c svgShape"/><path fill="#f97a5d" d="M330.9 313.3c0-.1 0-.2.1-.3 6.4-2.2 9.7-7.3 9.8-7.4.1-.1.2-.1.3-.1.1.1.1.2.1.3 0 .1-3.5 5.3-10 7.5-.2.1-.3.1-.3 0zM507 245.8c0-.1 0-.2.1-.2 8.4-2.2 11.4-8.1 11.5-8.1.1-.1.2-.1.3-.1.1.1.1.2.1.3 0 .1-3.2 6-11.7 8.3-.1 0-.2-.1-.3-.2z" class="colorf97a5d svgShape"/><path fill="#3d0422" d="M498.5 217.5c-.1 0-.2 0-.3-.1-2.9-2.1-2.1-6.5-2.1-6.7.1-.3.3-.4.6-.4.3.1.4.3.4.6 0 0-.7 3.9 1.7 5.7.2.2.3.5.1.7-.1.1-.3.2-.4.2zM337.3 288.6c-.2 0-.4-.1-.4-.3-.1-.2 0-.5.2-.7 1.2-.6 2-1.1 2.5-1.8.2-.2.5-.2.7-.1.2.2.2.5.1.7-.6.7-1.5 1.4-2.8 2-.1.2-.2.2-.3.2z" class="color3d0422 svgShape"/></svg>
